<svg xmlns="http://www.w3.org/2000/svg" x="0px" y="0px"
width="50" height="50"
viewBox="0 0 172 172"
style=" fill:#000000;"><g fill="none" fill-rule="nonzero" stroke="none" stroke-width="1" stroke-linecap="butt" stroke-linejoin="miter" stroke-miterlimit="10" stroke-dasharray="" stroke-dashoffset="0" font-family="none" font-weight="none" font-size="none" text-anchor="none" style="mix-blend-mode: normal"><path d="M0,172v-172h172v172z" fill="none"></path><g fill="#ffffff"><path d="M56.33,-0.1075c-0.14781,0.02687 -0.29562,0.06719 -0.43,0.1075c-1.12875,0.25531 -2.05594,1.04813 -2.4725,2.13656c-0.41656,1.08844 -0.25531,2.29781 0.43,3.23844l7.31,10.965c-12.37594,6.50375 -21.25812,17.72406 -23.3275,31.0675c0,0.04031 0,0.06719 0,0.1075c0,0.04031 0,0.06719 0,0.1075c0,0.1075 0,0.215 0,0.3225c0,0.06719 0,0.14781 0,0.215c-0.01344,0.17469 -0.01344,0.36281 0,0.5375v4.8375c-2.0425,-1.19594 -4.35375,-1.935 -6.88,-1.935c-7.56531,0 -13.76,6.19469 -13.76,13.76v41.28c0,7.56531 6.19469,13.76 13.76,13.76c2.52625,0 4.8375,-0.73906 6.88,-1.935v8.815c0,5.65719 4.66281,10.32 10.32,10.32h3.44v20.64c0,7.56531 6.19469,13.76 13.76,13.76c7.56531,0 13.76,-6.19469 13.76,-13.76v-20.64h13.76v20.64c0,7.56531 6.19469,13.76 13.76,13.76c7.56531,0 13.76,-6.19469 13.76,-13.76v-20.64h3.44c5.65719,0 10.32,-4.66281 10.32,-10.32v-8.815c2.0425,1.19594 4.35375,1.935 6.88,1.935c7.56531,0 13.76,-6.19469 13.76,-13.76v-41.28c0,-7.56531 -6.19469,-13.76 -13.76,-13.76c-2.52625,0 -4.8375,0.73906 -6.88,1.935v-4.73c0.04031,-0.3225 0.04031,-0.645 0,-0.9675c0,-0.04031 0,-0.06719 0,-0.1075c0,-0.04031 0,-0.06719 0,-0.1075c-2.00219,-13.4375 -10.88437,-24.75187 -23.3275,-31.2825l7.31,-10.965c0.84656,-1.15562 0.87344,-2.71437 0.08063,-3.91031c-0.77938,-1.19594 -2.23063,-1.78719 -3.62813,-1.46469c-0.88687,0.20156 -1.66625,0.73906 -2.15,1.505l-8.0625,11.9325c-5.67062,-2.0425 -11.90562,-3.1175 -18.3825,-3.1175c-6.47687,0 -12.71187,1.075 -18.3825,3.1175l-8.0625,-11.9325c-0.68531,-1.10187 -1.935,-1.72 -3.225,-1.6125zM86,17.2c6.46344,0 12.52375,1.26313 17.845,3.5475c0.1075,0.04031 0.215,0.08063 0.3225,0.1075c10.76344,4.71656 18.5975,13.545 21.6075,23.865h-79.55c2.96969,-10.17219 10.6425,-18.89312 21.1775,-23.65c0.22844,-0.08062 0.44344,-0.18812 0.645,-0.3225c5.34813,-2.31125 11.44875,-3.5475 17.9525,-3.5475zM67.08,27.52c-2.86219,0 -5.16,2.31125 -5.16,5.16c0,2.86219 2.29781,5.16 5.16,5.16c2.84875,0 5.16,-2.29781 5.16,-5.16c0,-2.84875 -2.31125,-5.16 -5.16,-5.16zM104.92,27.52c-2.84875,0 -5.16,2.31125 -5.16,5.16c0,2.86219 2.31125,5.16 5.16,5.16c2.86219,0 5.16,-2.29781 5.16,-5.16c0,-2.84875 -2.29781,-5.16 -5.16,-5.16zM44.72,51.6h82.56v75.68c0,1.935 -1.505,3.44 -3.44,3.44h-26.875c-0.45687,-0.09406 -0.94062,-0.09406 -1.3975,0h-39.8825c-0.45687,-0.09406 -0.94062,-0.09406 -1.3975,0h-6.1275c-1.935,0 -3.44,-1.505 -3.44,-3.44zM30.96,58.48c3.84313,0 6.88,3.03688 6.88,6.88v41.28c0,3.84313 -3.03687,6.88 -6.88,6.88c-3.84312,0 -6.88,-3.03687 -6.88,-6.88v-41.28c0,-3.84312 3.03688,-6.88 6.88,-6.88zM141.04,58.48c3.84313,0 6.88,3.03688 6.88,6.88v41.28c0,3.84313 -3.03687,6.88 -6.88,6.88c-3.84312,0 -6.88,-3.03687 -6.88,-6.88v-41.28c0,-3.84312 3.03688,-6.88 6.88,-6.88zM58.48,137.6h13.76v20.64c0,3.84313 -3.03687,6.88 -6.88,6.88c-3.84312,0 -6.88,-3.03687 -6.88,-6.88zM99.76,137.6h13.76v20.64c0,3.84313 -3.03687,6.88 -6.88,6.88c-3.84312,0 -6.88,-3.03687 -6.88,-6.88z"></path></g></g></svg>