  <svg xmlns="http://www.w3.org/2000/svg" x="0px" y="0px"
width="50" height="50"
viewBox="0 0 172 172"
style=" fill:#000000;"><g fill="none" fill-rule="nonzero" stroke="none" stroke-width="1" stroke-linecap="butt" stroke-linejoin="miter" stroke-miterlimit="10" stroke-dasharray="" stroke-dashoffset="0" font-family="none" font-weight="none" font-size="none" text-anchor="none" style="mix-blend-mode: normal"><path d="M0,172v-172h172v172z" fill="none"></path><g fill="#ffffff"><path d="M51.6,10.32c-22.7572,0 -41.28,18.5228 -41.28,41.28v68.8c0,22.7572 18.5228,41.28 41.28,41.28h68.8c22.7572,0 41.28,-18.5228 41.28,-41.28v-68.8c0,-22.7572 -18.5228,-41.28 -41.28,-41.28zM51.6,17.2h68.8c19.0388,0 34.4,15.3612 34.4,34.4v68.8c0,19.0388 -15.3612,34.4 -34.4,34.4h-68.8c-19.0388,0 -34.4,-15.3612 -34.4,-34.4v-68.8c0,-19.0388 15.3612,-34.4 34.4,-34.4zM39.9564,62.14844c-2.41832,0 -4.19922,1.72398 -4.19922,3.99094c0,2.236 1.7809,3.95735 4.19922,3.95735c2.41832,0 4.20594,-1.72135 4.20594,-3.95735c0,-2.26696 -1.78762,-3.99094 -4.20594,-3.99094zM75.80765,64.11031c-12.51816,0 -20.37797,8.76695 -20.37797,22.85719c0,14.05928 7.70845,22.88406 20.37797,22.88406c12.63856,0 20.3175,-8.85574 20.3175,-22.88406c0,-14.05928 -7.74086,-22.85375 -20.3175,-22.85719zM120.28578,64.11031c-9.52192,0 -15.87641,5.16935 -15.87641,12.94031c0,6.40872 3.5977,10.22303 11.48906,12.06687l5.6236,1.3639c5.77576,1.3588 8.31781,3.35196 8.31781,6.67844c0,3.87 -3.99105,6.67844 -9.43313,6.67844c-5.83113,0 -9.88321,-2.62784 -10.46109,-6.76578h-6.71875c0.48504,7.80192 6.9825,12.78578 16.65578,12.78578c10.34064,0 16.81031,-5.22644 16.81031,-13.57188c0,-6.56008 -3.68709,-10.19051 -12.63797,-12.27515l-4.8039,-1.1825c-5.68288,-1.33128 -7.98188,-3.11508 -7.98188,-6.22828c0,-3.93192 3.56986,-6.49703 8.9225,-6.49703c5.08088,0 8.58173,2.50255 9.21813,6.52391h6.59109c-0.39216,-7.34784 -6.85715,-12.51703 -15.71515,-12.51703zM75.80765,70.42594c8.28696,0 13.39719,6.4142 13.39719,16.54156c0,10.06544 -5.11367,16.56844 -13.39719,16.56844c-8.37296,0 -13.45094,-6.49956 -13.45094,-16.56844c0,-10.12736 5.2259,-16.53812 13.45094,-16.54156zM36.72469,75.87485v32.92187h6.47016v-32.92187z"></path></g></g></svg>
        